<svg width="94" height="94" viewBox="0 0 94 94" fill="none" xmlns="http://www.w3.org/2000/svg">
<path fill-rule="evenodd" clip-rule="evenodd" d="M86.1663 47.0002C86.1663 57.3878 82.0399 67.35 74.6947 74.6952C67.3495 82.0404 57.3873 86.1668 46.9997 86.1668C41.8562 86.1668 36.7632 85.1538 32.0112 83.1854C27.2593 81.2171 22.9416 78.3321 19.3047 74.6952C11.9595 67.35 7.83301 57.3878 7.83301 47.0002C7.83301 36.6125 11.9595 26.6503 19.3047 19.3051C26.6498 11.96 36.612 7.8335 46.9997 7.8335C52.1431 7.8335 57.2362 8.84657 61.9881 10.8149C66.74 12.7832 71.0577 15.6682 74.6947 19.3051C78.3317 22.9421 81.2167 27.2598 83.185 32.0117C85.1533 36.7636 86.1663 41.8567 86.1663 47.0002ZM63.4105 61.9227C59.8855 57.6535 53.8538 54.8335 46.9997 54.8335C40.1455 54.8335 34.1138 57.6535 30.5888 61.9227L36.1505 67.4843C37.913 64.6252 42.1038 62.6668 46.9997 62.6668C51.8955 62.6668 56.0863 64.6252 57.8488 67.4843L63.4105 61.9227ZM39.1664 37.2085C39.1664 40.3418 36.4247 43.0835 33.2914 43.0835C30.158 43.0835 27.4164 40.3418 27.4164 37.2085C27.4164 34.0752 30.158 31.3335 33.2914 31.3335C36.4247 31.3335 39.1664 34.0752 39.1664 37.2085ZM60.708 31.3335C63.8414 31.3335 66.583 34.0752 66.583 37.2085C66.583 40.3418 63.8414 43.0835 60.708 43.0835C57.5747 43.0835 54.833 40.3418 54.833 37.2085C54.833 34.0752 57.5747 31.3335 60.708 31.3335Z" fill="white"/>
</svg>
